<svg xmlns="http://www.w3.org/2000/svg" viewBox="0 2 30 30" x="0px" y="0px"><g><path d="M30,17.72,26.76,6.78a1,1,0,0,0-1.24-.68L5.3,12H3a1,1,0,0,0-1,1V25a1,1,0,0,0,1,1H25a1,1,0,0,0,1-1V19.92l3.28-1A1,1,0,0,0,30,17.72ZM24,24H4V14H24V24Zm2-6.17V13a1,1,0,0,0-1-1H12.44L25.12,8.3l2.64,9Z"/><path d="M15.64,18.59a4.64,4.64,0,0,0-1.23-.32l-.63-.15a.8.8,0,0,1-.31-.16.29.29,0,0,1-.09-.21.31.31,0,0,1,.14-.27.82.82,0,0,1,.42-.09.83.83,0,0,1,.41.09.39.39,0,0,1,.2.2.31.31,0,0,0,.13.1.27.27,0,0,0,.16,0h1.34a.17.17,0,0,0,.12-.06.17.17,0,0,0,.05-.12,1.21,1.21,0,0,0-.21-.61,2.15,2.15,0,0,0-.59-.57,2.49,2.49,0,0,0-1-.37v-.58a.21.21,0,0,0-.21-.21h-.82a.2.2,0,0,0-.14.06.18.18,0,0,0-.07.15v.56a2.35,2.35,0,0,0-1.28.59,1.53,1.53,0,0,0-.48,1.14,1.48,1.48,0,0,0,.24.86,1.62,1.62,0,0,0,.69.56,4.15,4.15,0,0,0,1.06.31,6.17,6.17,0,0,1,.7.15,1.09,1.09,0,0,1,.37.16.3.3,0,0,1,.11.23.3.3,0,0,1-.2.27,1.29,1.29,0,0,1-.57.1,1.28,1.28,0,0,1-.36,0,.83.83,0,0,1-.25-.12.91.91,0,0,1-.17-.17l-.13-.1a.45.45,0,0,0-.18,0H11.63a.15.15,0,0,0-.12.05.17.17,0,0,0,0,.12,1.39,1.39,0,0,0,.23.71,1.69,1.69,0,0,0,.63.58,2.89,2.89,0,0,0,1,.33v.55a.18.18,0,0,0,.07.15.2.2,0,0,0,.14.06h.82a.21.21,0,0,0,.21-.21v-.56a3.21,3.21,0,0,0,1-.32,1.83,1.83,0,0,0,.68-.61,1.53,1.53,0,0,0,.24-.85,1.34,1.34,0,0,0-.9-1.39Z"/></g></svg>